<?xml version="1.0" encoding="UTF-8" standalone="no"?>
<svg
   xmlns:dc="http://purl.org/dc/elements/1.1/"
   xmlns:cc="http://creativecommons.org/ns#"
   xmlns:rdf="http://www.w3.org/1999/02/22-rdf-syntax-ns#"
   xmlns:svg="http://www.w3.org/2000/svg"
   xmlns="http://www.w3.org/2000/svg"
   xmlns:sodipodi="http://sodipodi.sourceforge.net/DTD/sodipodi-0.dtd"
   xmlns:inkscape="http://www.inkscape.org/namespaces/inkscape"
   width="24"
   height="24"
   viewBox="0 0 24 24"
   version="1.1"
   id="svg6"
   sodipodi:docname="help.svg"
   inkscape:version="0.92.3 (2405546, 2018-03-11)">
  <metadata
     id="metadata12">
    <rdf:RDF>
      <cc:Work
         rdf:about="">
        <dc:format>image/svg+xml</dc:format>
        <dc:type
           rdf:resource="http://purl.org/dc/dcmitype/StillImage" />
      </cc:Work>
    </rdf:RDF>
  </metadata>
  <defs
     id="defs10" />
  <sodipodi:namedview
     pagecolor="#ffffff"
     bordercolor="#666666"
     borderopacity="1"
     objecttolerance="10"
     gridtolerance="10"
     guidetolerance="10"
     inkscape:pageopacity="0"
     inkscape:pageshadow="2"
     inkscape:window-width="1920"
     inkscape:window-height="1017"
     id="namedview8"
     showgrid="false"
     inkscape:zoom="13.906433"
     inkscape:cx="10.463961"
     inkscape:cy="13.936074"
     inkscape:window-x="1912"
     inkscape:window-y="-8"
     inkscape:window-maximized="1"
     inkscape:current-layer="svg6" />
  <path
     d="M0 0h24v24H0z"
     fill="none"
     id="path2" />
  <path
     style="fill:#494949;stroke-width:0.85618168"
     d="M 12 2.0371094 C 6.48 2.0371094 2 6.5171095 2 12.037109 C 2 17.557109 6.48 22.037109 12 22.037109 C 17.52 22.037109 22 17.557109 22 12.037109 C 22 6.5171095 17.52 2.0371094 12 2.0371094 z M 12 6.0429688 C 13.892161 6.0429688 15.423828 7.5765885 15.423828 9.46875 C 15.423828 10.22219 15.11693 10.906507 14.628906 11.394531 L 13.857422 12.181641 C 13.240971 12.806653 12.855469 13.321196 12.855469 14.605469 L 11.144531 14.605469 L 11.144531 14.177734 C 11.144531 13.235934 11.530033 12.378918 12.146484 11.753906 L 13.207031 10.675781 C 13.523818 10.367556 13.712891 9.9396499 13.712891 9.46875 C 13.712891 8.5269502 12.9418 7.7558594 12 7.7558594 C 11.0582 7.7558594 10.287109 8.5269502 10.287109 9.46875 L 8.5761719 9.46875 C 8.5761719 7.5765885 10.107838 6.0429687 12 6.0429688 z M 11.144531 16.316406 L 12.855469 16.316406 L 12.855469 18.029297 L 11.144531 18.029297 L 11.144531 16.316406 z "
     id="path4" />
</svg>
