<?xml version="1.0" encoding="UTF-8" standalone="no"?>
<!-- Created with Inkscape (http://www.inkscape.org/) -->

<svg
   xmlns:dc="http://purl.org/dc/elements/1.1/"
   xmlns:cc="http://creativecommons.org/ns#"
   xmlns:rdf="http://www.w3.org/1999/02/22-rdf-syntax-ns#"
   xmlns:svg="http://www.w3.org/2000/svg"
   xmlns="http://www.w3.org/2000/svg"
   xmlns:sodipodi="http://sodipodi.sourceforge.net/DTD/sodipodi-0.dtd"
   xmlns:inkscape="http://www.inkscape.org/namespaces/inkscape"
   width="106.77374mm"
   height="109.94926mm"
   viewBox="0 0 106.77373 109.94927"
   version="1.1"
   id="svg8"
   inkscape:version="0.92.3 (2405546, 2018-03-11)"
   sodipodi:docname="Shield1.svg">
  <defs
     id="defs2" />
  <sodipodi:namedview
     id="base"
     pagecolor="#ffffff"
     bordercolor="#666666"
     borderopacity="1.0"
     inkscape:pageopacity="0.0"
     inkscape:pageshadow="2"
     inkscape:zoom="1.979899"
     inkscape:cx="68.98375"
     inkscape:cy="191.32696"
     inkscape:document-units="mm"
     inkscape:current-layer="layer1"
     showgrid="false"
     fit-margin-top="5"
     fit-margin-left="5"
     fit-margin-right="5"
     fit-margin-bottom="5"
     inkscape:window-width="1920"
     inkscape:window-height="1017"
     inkscape:window-x="1912"
     inkscape:window-y="-8"
     inkscape:window-maximized="1" />
  <metadata
     id="metadata5">
    <rdf:RDF>
      <cc:Work
         rdf:about="">
        <dc:format>image/svg+xml</dc:format>
        <dc:type
           rdf:resource="http://purl.org/dc/dcmitype/StillImage" />
        <dc:title></dc:title>
      </cc:Work>
    </rdf:RDF>
  </metadata>
  <g
     inkscape:label="Layer 1"
     inkscape:groupmode="layer"
     id="layer1"
     transform="translate(432.57539,28.778621)">
    <g
       id="g6975"
       transform="matrix(0.26458333,0,0,0.26458333,-425.09718,-23.778621)">
      <g
         id="Shield1">
        <g
           id="g6955">
          <g
             id="g6953">
            <path
               id="path6945"
               d="m 173.521,377.761 c -0.08,0 -0.16,0 -0.24,0 -0.117,-0.378 -0.214,-0.764 -0.354,-1.134 -4.825,-12.722 -12.835,-23.022 -23.706,-31.142 -9.25,-6.909 -19.584,-11.704 -30.409,-15.53 -12.718,-4.496 -25.826,-7.566 -38.958,-10.521 -9.489,-2.135 -18.862,-4.587 -27.75,-8.646 C 39.098,304.847 27.84,296.642 18.914,285.376 13.78,278.897 10.019,271.661 6.868,264.055 4.071,257.305 1.913,250.39 0.854,243.152 c -0.329,-2.244 -0.571,-4.5 -0.853,-6.751 0,-3.439 0,-6.88 0,-10.32 0.083,-0.503 0.181,-1.005 0.246,-1.511 0.375,-2.933 0.635,-5.884 1.133,-8.795 1.802,-10.538 5.154,-20.627 9.391,-30.399 4.878,-11.252 10.056,-22.375 15.055,-33.575 5.382,-12.06 10.072,-24.346 12.767,-37.345 C 41.235,101.711 40.269,89.363 35.398,77.288 31.693,68.106 26.53,59.764 20.911,51.676 18.314,47.937 15.656,44.24 12.992,40.477 21.285,31.071 29.554,21.692 37.837,12.298 c 0.292,0.128 0.513,0.216 0.725,0.32 19.813,9.719 40.851,13.241 62.741,12.247 17.098,-0.777 33.548,-4.484 49.225,-11.427 C 158.632,9.85 166.28,5.468 173.28,0 c 0.08,0 0.16,0 0.24,0 2.415,1.705 4.756,3.53 7.258,5.097 24.336,15.229 51.032,21.072 79.474,19.727 13.758,-0.651 27.095,-3.445 39.907,-8.564 2.961,-1.183 5.85,-2.548 8.861,-3.869 8.244,9.35 16.513,18.727 24.812,28.139 -1.124,1.565 -2.195,3.055 -3.264,4.546 -6.06,8.451 -11.979,16.987 -16.576,26.36 -6.636,13.53 -9.011,27.596 -5.889,42.512 2.214,10.572 5.492,20.785 9.791,30.657 4.961,11.392 10.2,22.662 15.266,34.009 4.534,10.159 8.543,20.509 11.094,31.374 2.764,11.776 3.452,23.627 1.312,35.583 -1.333,7.444 -3.92,14.468 -6.873,21.405 -4.78,11.233 -11.655,20.917 -20.797,28.983 -12.069,10.65 -26.191,17.351 -41.679,21.282 -10.882,2.762 -21.856,5.158 -32.722,7.979 -11.664,3.028 -23.026,6.953 -33.722,12.614 -10.928,5.785 -20.472,13.214 -27.689,23.385 -3.627,5.111 -6.557,10.59 -8.563,16.542 z"
               style="clip-rule:evenodd;fill-rule:evenodd"
               inkscape:connector-curvature="0" />
            <path
               id="path6947"
               d="m 173.521,377.761 c 2.007,-5.952 4.937,-11.431 8.563,-16.541 7.218,-10.171 16.762,-17.6 27.689,-23.385 10.695,-5.661 22.058,-9.586 33.722,-12.614 10.865,-2.82 21.84,-5.217 32.722,-7.979 15.487,-3.932 29.609,-10.632 41.679,-21.282 9.142,-8.066 16.017,-17.75 20.797,-28.983 2.953,-6.938 5.54,-13.961 6.873,-21.405 2.141,-11.956 1.452,-23.807 -1.312,-35.583 -2.551,-10.864 -6.56,-21.215 -11.094,-31.374 -5.065,-11.347 -10.305,-22.617 -15.266,-34.009 -4.299,-9.872 -7.577,-20.085 -9.791,-30.657 -3.122,-14.916 -0.747,-28.982 5.889,-42.512 4.598,-9.374 10.517,-17.909 16.576,-26.36 1.068,-1.491 2.14,-2.98 3.264,-4.546 -8.299,-9.412 -16.567,-18.789 -24.812,-28.139 -3.012,1.321 -5.9,2.686 -8.861,3.869 -12.813,5.12 -26.149,7.914 -39.907,8.564 -28.441,1.345 -55.138,-4.498 -79.474,-19.727 -2.502,-1.566 -4.843,-3.392 -7.258,-5.097 57.83,0 115.661,0 173.506,0 0,125.92 0,251.84 0,377.76 -57.845,0 -115.675,0 -173.505,0 z"
               style="clip-rule:evenodd;fill:none;fill-rule:evenodd"
               inkscape:connector-curvature="0" />
            <path
               id="path6949"
               d="m 0,236.4 c 0.282,2.251 0.524,4.507 0.853,6.751 1.06,7.238 3.217,14.153 6.014,20.903 3.151,7.606 6.912,14.842 12.046,21.321 8.927,11.267 20.185,19.471 33.19,25.412 8.887,4.06 18.26,6.512 27.75,8.646 13.133,2.954 26.24,6.024 38.958,10.521 10.825,3.826 21.159,8.621 30.409,15.53 10.87,8.119 18.88,18.42 23.706,31.142 0.14,0.37 0.237,0.756 0.354,1.134 -57.76,0 -115.52,0 -173.28,0 0,-47.119 0,-94.239 0,-141.36 z"
               style="clip-rule:evenodd;fill:none;fill-rule:evenodd"
               inkscape:connector-curvature="0" />
            <path
               id="path6951"
               d="m 173.28,0 c -7,5.468 -14.648,9.849 -22.753,13.438 C 134.85,20.38 118.4,24.088 101.302,24.865 79.411,25.859 58.374,22.337 38.561,12.618 c -0.212,-0.104 -0.433,-0.192 -0.725,-0.32 -8.283,9.395 -16.552,18.773 -24.845,28.179 2.664,3.763 5.322,7.46 7.919,11.199 5.62,8.088 10.783,16.43 14.487,25.612 4.871,12.075 5.836,24.423 3.195,37.168 -2.695,12.999 -7.385,25.285 -12.767,37.345 -4.999,11.2 -10.177,22.322 -15.055,33.575 -4.237,9.772 -7.589,19.861 -9.391,30.399 -0.498,2.911 -0.757,5.862 -1.133,8.795 C 0.181,225.076 0.082,225.578 0,226.081 0,150.72 0,75.36 0,0 57.76,0 115.521,0 173.28,0 Z"
               style="clip-rule:evenodd;fill:none;fill-rule:evenodd"
               inkscape:connector-curvature="0" />
          </g>
        </g>
      </g>
      <g
         id="Ebene_1" />
    </g>
    <g
       id="g900"
       transform="matrix(0.26458333,0,0,0.26458333,-425.03368,-23.778621)">
      <g
         id="Shield1_x5F_Lines">
        <g
           id="g879">
          <g
             id="g877">
            <path
               id="path867"
               d="m 173.521,0 c 57.83,0 115.661,0 173.506,0 0,125.92 0,251.84 0,377.76 -57.845,0 -115.676,0 -173.506,0 0.112,-0.379 0.199,-0.767 0.339,-1.135 4.861,-12.806 12.938,-23.157 23.909,-31.296 9.211,-6.833 19.481,-11.585 30.237,-15.381 12.388,-4.372 25.145,-7.395 37.936,-10.273 9.803,-2.206 19.514,-4.654 28.703,-8.854 12.553,-5.735 23.504,-13.574 32.31,-24.285 5.433,-6.609 9.354,-14.063 12.732,-21.893 6.391,-14.814 8.532,-30.133 6.177,-46.093 -1.569,-10.629 -4.665,-20.841 -8.857,-30.682 -4.918,-11.541 -10.189,-22.932 -15.316,-34.384 -5.315,-11.871 -10.195,-23.895 -12.979,-36.661 -1.626,-7.458 -2.572,-14.962 -1.676,-22.618 1.129,-9.644 4.518,-18.513 9.105,-26.981 4.869,-8.989 10.867,-17.237 16.819,-25.515 0.275,-0.383 0.538,-0.775 0.832,-1.198 -8.3,-9.411 -16.546,-18.764 -24.835,-28.163 -0.845,0.403 -1.632,0.782 -2.421,1.154 -16.213,7.64 -33.355,11.194 -51.203,11.53 C 233.269,25.448 212.172,21.21 192.247,11.574 185.61,8.368 179.312,4.589 173.521,0 Z"
               style="clip-rule:evenodd;fill:none;fill-rule:evenodd"
               inkscape:connector-curvature="0" />
            <path
               id="path869"
               d="m 173.521,0 c 5.791,4.588 12.09,8.367 18.727,11.577 19.925,9.636 41.021,13.874 63.086,13.458 17.848,-0.336 34.99,-3.891 51.203,-11.53 0.789,-0.373 1.576,-0.751 2.421,-1.154 8.289,9.399 16.535,18.752 24.835,28.163 -0.294,0.423 -0.557,0.815 -0.832,1.198 -5.952,8.277 -11.95,16.525 -16.819,25.515 -4.588,8.468 -7.977,17.337 -9.105,26.981 -0.896,7.655 0.05,15.159 1.676,22.618 2.783,12.766 7.663,24.79 12.979,36.661 5.127,11.452 10.398,22.843 15.316,34.384 4.192,9.841 7.288,20.053 8.857,30.682 2.355,15.96 0.214,31.278 -6.177,46.093 -3.378,7.829 -7.3,15.283 -12.732,21.893 -8.806,10.711 -19.757,18.55 -32.31,24.285 -9.189,4.199 -18.9,6.647 -28.703,8.854 -12.791,2.879 -25.548,5.901 -37.936,10.273 -10.756,3.796 -21.026,8.548 -30.237,15.381 -10.971,8.139 -19.048,18.49 -23.909,31.296 -0.14,0.368 -0.227,0.756 -0.339,1.135 -0.08,0 -0.16,0 -0.24,0 -0.109,-0.379 -0.192,-0.769 -0.332,-1.136 -4.188,-11.034 -10.802,-20.357 -19.779,-28.009 -9.189,-7.832 -19.765,-13.214 -30.979,-17.449 -13.086,-4.942 -26.654,-8.181 -40.257,-11.282 -9.007,-2.053 -18,-4.123 -26.566,-7.705 -14.31,-5.982 -26.7,-14.549 -36.41,-26.781 -5.142,-6.479 -8.904,-13.718 -12.06,-21.325 -2.816,-6.79 -4.985,-13.748 -6.038,-21.033 -0.33,-2.287 -0.575,-4.586 -0.859,-6.88 0,-3.28 0,-6.56 0,-9.84 0.088,-0.586 0.188,-1.171 0.264,-1.76 0.37,-2.893 0.627,-5.805 1.117,-8.678 1.898,-11.143 5.555,-21.76 10.055,-32.076 5,-11.462 10.308,-22.791 15.379,-34.223 5.016,-11.308 9.339,-22.859 11.756,-35.048 1.465,-7.386 2.076,-14.791 0.945,-22.289 -1.377,-9.138 -4.742,-17.554 -9.155,-25.6 -4.626,-8.433 -10.23,-16.222 -15.831,-24.013 -0.508,-0.707 -1.005,-1.422 -1.484,-2.099 0.098,-0.156 0.132,-0.231 0.184,-0.29 8.01,-9.09 16.03,-18.171 24.014,-27.283 0.589,-0.672 1.027,-0.481 1.635,-0.179 6.785,3.377 13.865,5.976 21.19,7.902 17.394,4.575 35.014,5.463 52.819,3.177 15.114,-1.941 29.552,-6.15 43.174,-13.03 6.074,-3.07 11.88,-6.582 17.216,-10.834 0.08,0 0.16,0 0.241,0 z m 0.081,352.594 c 0.047,-0.061 0.247,-0.307 0.435,-0.563 3.442,-4.703 7.446,-8.893 11.921,-12.603 10.771,-8.933 22.927,-15.382 36.102,-20.011 13.613,-4.783 27.615,-8.116 41.669,-11.233 11.417,-2.532 22.436,-6.03 32.738,-11.691 9.116,-5.01 16.759,-11.675 23.08,-19.867 3.551,-4.601 6.162,-9.765 8.428,-15.108 2.535,-5.982 5.069,-11.951 5.991,-18.463 1.516,-10.697 1.092,-21.313 -1.543,-31.78 -2.602,-10.339 -6.761,-20.128 -11.108,-29.828 -4.036,-9.005 -8.213,-17.948 -12.239,-26.958 -4.392,-9.825 -8.15,-19.883 -10.688,-30.364 -1.466,-6.055 -2.854,-12.126 -3.455,-18.348 -1.021,-10.576 1.309,-20.661 4.564,-30.58 2.768,-8.431 7.172,-16.066 11.982,-23.468 2.264,-3.482 4.658,-6.879 7.007,-10.333 -0.079,-0.12 -0.151,-0.265 -0.255,-0.383 -3.986,-4.529 -7.965,-9.065 -11.992,-13.557 -0.233,-0.26 -0.927,-0.313 -1.32,-0.191 -5.015,1.563 -9.963,3.36 -15.026,4.735 -10.439,2.835 -21.071,4.579 -31.905,4.977 -13.952,0.512 -27.661,-1.091 -41.242,-4.308 -15.171,-3.594 -29.547,-8.998 -42.606,-17.635 -0.497,-0.329 -0.839,-0.362 -1.371,-0.017 -5.727,3.719 -11.714,6.954 -17.991,9.659 -13.092,5.642 -26.81,9.018 -40.86,11.04 -13.337,1.919 -26.718,1.885 -40.045,-0.201 -10.931,-1.71 -21.667,-4.246 -31.985,-8.334 -0.689,-0.273 -1.052,-0.136 -1.506,0.383 -2.709,3.098 -5.453,6.166 -8.178,9.25 -1.319,1.493 -2.622,3 -3.882,4.444 2.93,4.411 5.875,8.687 8.658,13.065 5.851,9.204 10.469,18.941 12.883,29.664 1.455,6.462 2.625,12.933 2.16,19.582 -0.728,10.38 -3.3,20.39 -6.368,30.276 -3.795,12.229 -9.271,23.776 -14.552,35.402 -3.389,7.461 -6.827,14.905 -9.98,22.466 -3.9,9.35 -7.328,18.861 -8.496,29.036 -0.974,8.482 -1.012,16.95 0.786,25.306 1.738,8.071 5.167,15.552 8.988,22.825 5.187,9.872 12.75,17.668 21.897,23.879 9.687,6.578 20.425,10.9 31.765,13.708 10.612,2.628 21.292,4.989 31.866,7.756 13.083,3.424 25.845,7.788 37.626,14.596 6.693,3.868 13.069,8.222 18.616,13.635 3.274,3.2 6.255,6.706 9.431,10.14 z"
               style="clip-rule:evenodd;fill-rule:evenodd;fill:#f30000;fill-opacity:1"
               inkscape:connector-curvature="0" />
            <path
               id="path871"
               d="m 0,236.16 c 0.284,2.294 0.529,4.593 0.859,6.88 1.053,7.285 3.222,14.243 6.038,21.033 3.156,7.607 6.918,14.847 12.06,21.325 9.709,12.232 22.1,20.799 36.41,26.781 8.567,3.582 17.56,5.652 26.566,7.705 13.603,3.102 27.171,6.34 40.257,11.282 11.214,4.235 21.789,9.617 30.979,17.449 8.977,7.651 15.591,16.975 19.779,28.009 0.14,0.367 0.223,0.757 0.332,1.136 -57.76,0 -115.52,0 -173.28,0 0,-47.199 0,-94.4 0,-141.6 z"
               style="clip-rule:evenodd;fill:none;fill-rule:evenodd"
               inkscape:connector-curvature="0" />
            <path
               id="path873"
               d="m 173.28,0 c -5.336,4.252 -11.143,7.764 -17.218,10.833 -13.622,6.88 -28.06,11.089 -43.174,13.03 C 95.083,26.15 77.463,25.261 60.069,20.686 52.744,18.76 45.664,16.161 38.879,12.784 38.271,12.482 37.833,12.291 37.244,12.963 29.26,22.075 21.24,31.156 13.23,40.246 c -0.052,0.059 -0.086,0.134 -0.184,0.29 0.479,0.677 0.976,1.392 1.484,2.099 5.601,7.791 11.205,15.58 15.831,24.013 4.413,8.046 7.778,16.462 9.155,25.6 1.13,7.498 0.52,14.903 -0.945,22.289 -2.417,12.189 -6.74,23.74 -11.756,35.048 -5.071,11.432 -10.379,22.761 -15.379,34.223 -4.5,10.316 -8.156,20.933 -10.055,32.076 -0.49,2.873 -0.747,5.785 -1.117,8.678 C 0.189,225.151 0.089,225.736 0,226.322 0,150.88 0,75.44 0,0 57.76,0 115.521,0 173.28,0 Z"
               style="clip-rule:evenodd;fill:none;fill-rule:evenodd"
               inkscape:connector-curvature="0" />
            <path
               id="path875"
               d="m 173.602,352.594 c -3.176,-3.434 -6.157,-6.939 -9.436,-10.14 -5.547,-5.413 -11.923,-9.767 -18.616,-13.635 -11.781,-6.808 -24.542,-11.172 -37.626,-14.596 -10.574,-2.767 -21.254,-5.128 -31.866,-7.756 -11.34,-2.808 -22.078,-7.13 -31.765,-13.708 -9.146,-6.211 -16.71,-14.007 -21.897,-23.879 -3.821,-7.273 -7.25,-14.754 -8.988,-22.825 -1.798,-8.355 -1.76,-16.823 -0.786,-25.306 1.167,-10.175 4.596,-19.687 8.496,-29.036 3.154,-7.561 6.592,-15.005 9.98,-22.466 5.28,-11.625 10.756,-23.173 14.552,-35.402 3.068,-9.886 5.641,-19.896 6.368,-30.276 0.466,-6.648 -0.705,-13.12 -2.16,-19.582 -2.414,-10.722 -7.032,-20.46 -12.883,-29.664 -2.784,-4.378 -5.728,-8.654 -8.658,-13.065 1.26,-1.444 2.563,-2.951 3.882,-4.444 2.725,-3.084 5.469,-6.152 8.178,-9.25 0.454,-0.519 0.817,-0.656 1.506,-0.383 10.318,4.089 21.054,6.624 31.985,8.334 13.327,2.085 26.708,2.12 40.045,0.201 14.051,-2.021 27.768,-5.398 40.86,-11.04 6.277,-2.705 12.264,-5.94 17.991,-9.659 0.532,-0.345 0.875,-0.312 1.371,0.017 13.059,8.637 27.435,14.041 42.606,17.635 13.581,3.217 27.29,4.819 41.242,4.308 10.834,-0.397 21.466,-2.142 31.905,-4.977 5.063,-1.375 10.012,-3.173 15.026,-4.735 0.394,-0.123 1.087,-0.069 1.32,0.191 4.027,4.491 8.006,9.028 11.992,13.557 0.104,0.118 0.176,0.263 0.255,0.383 -2.349,3.454 -4.743,6.851 -7.007,10.333 -4.811,7.402 -9.215,15.037 -11.982,23.468 -3.256,9.919 -5.586,20.004 -4.564,30.58 0.602,6.222 1.989,12.292 3.455,18.348 2.538,10.48 6.297,20.539 10.688,30.364 4.026,9.01 8.203,17.952 12.239,26.958 4.348,9.7 8.507,19.489 11.108,29.828 2.635,10.467 3.059,21.083 1.543,31.78 -0.922,6.512 -3.456,12.48 -5.991,18.463 -2.266,5.344 -4.877,10.508 -8.428,15.108 -6.321,8.192 -13.964,14.857 -23.08,19.867 -10.303,5.661 -21.321,9.159 -32.738,11.691 -14.054,3.117 -28.056,6.45 -41.669,11.233 -13.175,4.629 -25.331,11.078 -36.102,20.011 -4.475,3.71 -8.479,7.899 -11.921,12.603 -0.183,0.256 -0.384,0.502 -0.43,0.563 z"
               style="clip-rule:evenodd;fill:none;fill-rule:evenodd"
               inkscape:connector-curvature="0" />
          </g>
        </g>
      </g>
      <g
         id="Ebene_1-2" />
    </g>
  </g>
</svg>
